<?xml version="1.0" standalone="no"?>
<!DOCTYPE svg PUBLIC "-//W3C//DTD SVG 20010904//EN"
 "http://www.w3.org/TR/2001/REC-SVG-20010904/DTD/svg10.dtd">
<svg version="1.0" xmlns="http://www.w3.org/2000/svg"
 width="939.000000pt" height="939.000000pt" viewBox="0 0 939.000000 939.000000"
 preserveAspectRatio="xMidYMid meet">
<metadata>
Created by potrace 1.14, written by Peter Selinger 2001-2017
</metadata>
<g transform="translate(0.000000,939.000000) scale(0.100000,-0.100000)"
fill="#000000" stroke="none">
<path d="M9095 8356 c-6 -8 -39 -57 -74 -110 -34 -53 -67 -96 -72 -96 -5 0 -9
-6 -9 -13 0 -7 -22 -36 -48 -65 -27 -29 -46 -52 -43 -52 3 0 -6 -12 -22 -28
-15 -15 -69 -70 -120 -122 -50 -52 -132 -131 -182 -174 -49 -43 -94 -84 -100
-91 -5 -6 -20 -17 -31 -23 -21 -11 -138 -101 -180 -139 -11 -10 -37 -26 -57
-35 -20 -10 -37 -22 -37 -27 0 -5 -10 -11 -23 -15 -12 -3 -32 -14 -43 -25 -32
-29 -264 -169 -349 -209 -22 -11 -82 -42 -133 -70 -51 -28 -103 -54 -115 -58
-12 -4 -38 -17 -58 -30 -20 -12 -47 -24 -60 -26 -13 -1 -32 -10 -42 -20 -10
-9 -38 -21 -62 -27 -24 -6 -49 -17 -57 -23 -7 -7 -38 -22 -68 -32 -30 -11 -77
-29 -105 -42 -57 -25 -129 -49 -131 -43 -1 2 -10 -4 -21 -13 -16 -15 -83 -37
-120 -40 -7 -1 -14 -7 -17 -14 -2 -6 -23 -15 -46 -19 -39 -7 -134 -36 -227
-69 -22 -8 -52 -17 -66 -20 -14 -2 -34 -9 -44 -14 -10 -6 -22 -10 -28 -11 -39
-4 -91 -16 -156 -36 -41 -13 -91 -27 -110 -30 -18 -3 -50 -8 -69 -12 -19 -3
-41 -10 -47 -16 -7 -5 -13 -7 -13 -4 0 4 -18 0 -40 -8 -22 -8 -59 -17 -82 -20
-24 -4 -74 -16 -113 -27 -64 -18 -95 -25 -195 -43 -19 -3 -48 -10 -65 -15 -16
-5 -41 -11 -55 -14 -14 -2 -36 -7 -50 -10 -14 -3 -43 -8 -65 -11 -22 -3 -82
-17 -134 -31 -51 -14 -95 -23 -98 -21 -2 3 -22 1 -44 -4 -21 -5 -56 -12 -77
-15 -20 -3 -44 -10 -52 -14 -8 -4 -40 -11 -70 -14 -30 -4 -66 -8 -80 -10 -14
-3 -59 -10 -100 -16 -104 -16 -110 -17 -155 -25 -22 -4 -49 -9 -60 -11 -20 -4
-103 -11 -205 -18 -30 -3 -84 -11 -120 -20 -36 -8 -96 -18 -135 -21 -118 -10
-158 -16 -280 -40 -38 -8 -86 -17 -105 -19 -19 -3 -57 -8 -85 -12 -27 -4 -59
-8 -70 -9 -12 -2 -48 -10 -80 -18 -33 -9 -94 -21 -135 -27 -41 -7 -97 -19
-124 -26 -27 -8 -51 -12 -54 -9 -3 2 -13 0 -23 -6 -10 -5 -38 -12 -61 -15 -24
-3 -62 -12 -86 -20 -24 -8 -47 -12 -52 -9 -5 3 -11 1 -15 -4 -3 -6 -27 -13
-53 -16 -26 -4 -78 -16 -117 -27 -84 -24 -95 -27 -160 -39 -27 -5 -59 -14 -70
-19 -11 -5 -54 -21 -96 -34 -41 -14 -88 -32 -105 -41 -16 -8 -34 -15 -41 -15
-6 0 -28 -9 -50 -20 -21 -10 -65 -32 -98 -48 -63 -30 -78 -37 -135 -67 -19
-10 -55 -28 -80 -41 -26 -12 -52 -29 -59 -38 -7 -9 -18 -16 -24 -16 -11 0 -21
-6 -142 -86 -183 -119 -326 -237 -489 -400 -110 -110 -166 -170 -166 -178 0
-4 -12 -19 -28 -34 -29 -29 -49 -54 -112 -142 -22 -30 -43 -59 -48 -65 -14
-17 -98 -148 -112 -175 -7 -14 -16 -27 -19 -30 -4 -3 -15 -24 -25 -47 -11 -24
-22 -43 -26 -43 -4 0 -14 -17 -23 -37 -9 -21 -21 -45 -26 -53 -18 -26 -91
-191 -91 -204 0 -6 -4 -16 -9 -21 -5 -6 -26 -55 -46 -110 -20 -55 -41 -104
-45 -110 -5 -5 -11 -28 -15 -50 -4 -22 -9 -47 -12 -55 -4 -8 -7 -17 -8 -20 -1
-3 -7 -18 -14 -35 -7 -16 -14 -41 -16 -55 -1 -14 -11 -52 -21 -85 -10 -33 -19
-64 -20 -70 -3 -14 -13 -64 -19 -100 -4 -16 -12 -55 -20 -85 -7 -30 -16 -77
-19 -105 -6 -54 -11 -81 -26 -160 -6 -27 -12 -88 -14 -135 -6 -99 -16 -220
-22 -270 -8 -51 -12 -573 -5 -585 7 -13 9 -31 15 -155 3 -58 9 -139 12 -180 3
-41 6 -82 6 -90 0 -8 4 -31 8 -50 12 -48 20 -105 26 -169 8 -96 24 -180 35
-187 5 -3 9 -14 9 -25 0 -10 4 -19 10 -19 10 0 90 115 90 130 0 10 168 181
220 223 19 16 47 35 62 43 16 8 28 18 28 22 0 5 19 19 43 31 23 13 65 36 92
52 77 44 227 117 258 124 15 4 27 11 27 16 0 5 3 8 8 7 4 -1 17 4 30 11 13 7
33 15 45 17 12 3 27 6 32 7 6 2 17 7 25 12 12 8 95 39 185 69 6 1 21 7 35 13
14 6 43 13 65 17 22 5 45 11 50 15 11 9 107 35 170 47 22 4 42 8 45 9 3 0 14
6 25 12 20 10 63 20 132 29 20 2 57 11 82 20 42 14 129 32 243 49 53 9 58 10
83 18 11 3 38 8 59 12 21 3 48 7 60 10 12 2 48 7 81 10 33 3 67 8 75 10 8 2
32 6 54 10 21 3 41 7 45 9 9 6 99 18 153 21 55 3 172 15 197 20 10 2 35 6 56
9 20 4 40 8 44 11 4 2 56 7 117 10 60 3 132 8 159 10 28 3 84 7 125 10 41 3
86 8 100 10 14 3 66 8 115 10 50 3 115 7 145 10 125 12 671 31 1120 40 118 2
224 6 235 9 11 2 54 7 95 11 41 3 93 8 115 11 22 3 56 7 75 9 20 2 83 14 140
26 58 12 116 23 130 25 14 2 36 5 50 8 14 3 39 9 55 12 17 3 36 11 43 16 6 6
12 7 12 3 0 -4 6 -3 13 2 6 5 26 11 42 12 50 4 57 6 142 33 44 15 92 29 105
31 12 2 34 8 48 14 14 5 48 17 75 26 118 38 144 47 220 75 44 17 100 37 125
46 25 9 63 25 85 35 22 10 45 20 50 21 6 1 35 14 65 30 30 16 72 34 93 41 20
7 37 16 37 20 0 3 28 19 62 34 35 16 69 34 76 42 7 7 19 13 25 13 7 0 57 29
112 65 55 36 105 65 112 65 7 0 13 4 13 9 0 7 55 46 121 87 31 18 175 125 200
147 9 8 30 23 48 33 17 10 31 21 31 24 0 4 30 31 67 61 77 62 83 67 177 155
38 35 72 64 77 64 5 0 9 4 9 9 0 5 38 48 85 96 72 74 119 127 170 193 6 7 15
18 20 25 6 7 29 38 53 70 23 31 59 81 81 110 129 174 262 397 387 648 56 113
150 325 159 359 2 11 46 126 55 145 5 11 14 38 21 60 6 22 16 51 21 64 11 28
45 147 73 251 14 53 45 191 50 220 3 19 10 49 15 65 10 31 15 59 24 133 13 97
18 127 21 132 1 3 6 28 9 55 4 28 9 66 11 85 13 96 28 404 28 555 0 131 -16
432 -28 530 -8 72 -15 118 -20 124 -4 8 -13 68 -20 141 -5 52 -14 100 -21 112
-7 12 -14 47 -19 97 -2 24 -7 51 -10 61 -3 10 -8 28 -10 41 -2 12 -9 36 -14
53 -6 17 -12 42 -13 56 -2 14 -6 30 -10 35 -3 6 -16 50 -28 100 -12 49 -25 94
-30 100 -5 5 -8 12 -7 15 2 7 -26 45 -38 52 -6 4 -15 1 -20 -6z"/>
</g>
</svg>
